        Baywatch Hawaiian Wedding 2003 DVDRip Xvid fasamoo LKRG

RIPPER                           : fasamoo
Format                           : AVI
Format/Info                      : Audio Video Interleave
Format profile                   : OpenDML
File size                        : 705 MiB
Duration                         : 1h 39mn
Overall bit rate                 : 985 Kbps
Writing application              : AVI-Mux GUI 1.17.8.3, Feb 16 201019:42:50
Language                         : English
Subtitles                        : English(*.srt)
                                   English ; Spanish(*.idx,*.sub)
Genre                            : Action | Drama | Adventure

Video
ID                               : 0
Format                           : MPEG-4 Visual
Format profile                   : Advanced Simple@L5
Format settings, BVOP            : Yes
Format settings, QPel            : No
Format settings, GMC             : No warppoints
Format settings, Matrix          : Custom
Codec ID                         : XVID
Codec ID/Hint                    : XviD
Duration                         : 1h 39mn
Bit rate                         : 854 Kbps
Width                            : 464 pixels
Height                           : 272 pixels
Display aspect ratio             : 16:9
Frame rate                       : 23.976 fps
Color space                      : YUV
Chroma subsampling               : 4:2:0
Bit depth                        : 8 bits
Scan type                        : Progressive
Bits/(Pixel*Frame)               : 0.282
Stream size                      : 611 MiB (87%)
Writing library                  : XviD 1.2.1 (UTC 2008-12-04)

Audio
ID                               : 1
Format                           : MPEG Audio
Format version                   : Version 1
Format profile                   : Layer 3
Mode                             : Joint stereo
Mode extension                   : MS Stereo
Codec ID                         : 55
Codec ID/Hint                    : MP3
Duration                         : 1h 39mn
Bit rate mode                    : Constant
Bit rate                         : 128 Kbps
Channel(s)                       : 2 channels
Sampling rate                    : 48.0 KHz
Stream size                      : 91.5 MiB (13%)
Alignment                        : Aligned on interleaves
Interleave, duration             : 809 ms (19.39 video frames)
Interleave, preload duration     : 216 ms

                                 PLOT


Mitch Buchannon didn't die in a boat explosion in the 10th season but has been recovering from amnesia in Los Angeles. Mitch returns to Hawaii to get married again! His new fiancée Allison looks a lot like Lt. Stephanie Holden, a past love. Little does he know, Allison is cooperating with Mason Sato who appeared in the show's 2nd season and now returns for revenge. The Baywatchers are invited to Hawaii by CJ. She's opening CJ's Bar & Grill at the Turtle Bay Resort. Coincidentally, Caroline Holden is already there filming a soap opera. Neely Capshaw (ex-Mrs. Buchannon) comes to Hawaii to stop the wedding. She wants Mitch back! 
 

  







                                 IMBD
                     
                    http://www.imdb.com/title/tt0337851/
 
http://leetleech.org/images/71639988100776489682.png 
http://leetleech.org/images/40383975652211303577.png 
http://leetleech.org/images/66316246166993453866.png 
http://leetleech.org/images/92651614544082550836.png 
http://leetleech.org/images/25720934211955106145.png